<?xml version="1.0" encoding="UTF-8"?>
<svg width="78px" height="68px" viewBox="0 0 78 68" version="1.1" xmlns="http://www.w3.org/2000/svg" xmlns:xlink="http://www.w3.org/1999/xlink">
    <!-- Generator: Sketch 3.6.1 (26313) - http://www.bohemiancoding.com/sketch -->
    <title>heart</title>
    <desc>Created with Sketch.</desc>
    <defs></defs>
    <g id="Page-1" stroke="none" stroke-width="1" fill="none" fill-rule="evenodd">
        <g id="heart" transform="translate(1.000000, 0.000000)" stroke="#DE3636" stroke-width="2" fill="#DE3636">
            <g id="Group" transform="translate(0.000000, 0.637820)">
                <path d="M19.248425,0.37396 C14.322825,0.37396 9.415626,2.26319 5.654626,6.09271 C-1.866974,13.75175 -1.858774,26.11459 5.654626,33.7802 L37.279625,66.0615 C37.6692492,66.4467238 38.2963008,66.4467238 38.685925,66.0615 C49.239425,55.3156 59.788725,44.5574 70.342225,33.8115 C77.863925,26.15239 77.863925,13.81425 70.342225,6.15521 C62.820425,-1.50383 50.645325,-1.50393 43.123425,6.15521 L38.029625,11.34271 L32.873425,6.09271 C29.112525,2.26319 24.174025,0.37396 19.248425,0.37396 L19.248425,0.37396 Z M31.435925,7.49896 L37.310925,13.46771 C37.7005492,13.8529338 38.3276008,13.8529338 38.717225,13.46771 L44.560925,7.53021 C51.330825,0.63679 62.166125,0.63689 68.935925,7.53021 C75.705725,14.42353 75.705725,25.51189 68.935925,32.4052 C65.1514549,36.2587488 61.3684113,40.1147874 57.5857426,43.9714841 C51.057322,50.6276681 44.5300182,57.2858121 37.998425,63.9365 L7.060926,32.374 C0.297026,25.47309 0.291226,14.39228 7.060926,7.49896 C10.445925,4.0523 14.848325,2.34271 19.248425,2.34271 C23.648525,2.34271 28.051025,4.0523 31.435925,7.49896 Z" id="Shape"></path>
            </g>
        </g>
    </g>
</svg>